<svg xmlns="http://www.w3.org/2000/svg" width="55" height="55" viewBox="0 0 55 55" fill="none">
  <path d="M50.4166 41.2615C50.4166 42.5219 49.3945 43.5417 48.1364 43.5417H29.7801C29.1754 43.5417 28.5954 43.3015 28.1678 42.8738C27.7402 42.4462 27.4999 41.8662 27.4999 41.2615C27.4999 40.6567 27.7402 40.0768 28.1678 39.6491C28.5954 39.2215 29.1754 38.9813 29.7801 38.9813H48.1364C49.3968 38.9813 50.4166 40.0011 50.4166 41.2615ZM50.4166 27.5C50.4166 28.7605 49.3945 29.7802 48.1364 29.7802H6.86346C6.25871 29.7802 5.67873 29.54 5.25111 29.1124C4.82349 28.6848 4.58325 28.1048 4.58325 27.5C4.58325 26.8953 4.82349 26.3153 5.25111 25.8877C5.67873 25.4601 6.25871 25.2198 6.86346 25.2198H48.1364C49.3968 25.2198 50.4166 26.2419 50.4166 27.5ZM48.1364 16.0188C48.7411 16.0188 49.3211 15.7786 49.7487 15.3509C50.1764 14.9233 50.4166 14.3433 50.4166 13.7386C50.4166 13.1338 50.1764 12.5539 49.7487 12.1262C49.3211 11.6986 48.7411 11.4584 48.1364 11.4584H20.6135C20.314 11.4584 20.0175 11.5174 19.7409 11.6319C19.4642 11.7465 19.2128 11.9145 19.0011 12.1262C18.7894 12.338 18.6214 12.5893 18.5068 12.866C18.3922 13.1426 18.3333 13.4391 18.3333 13.7386C18.3333 14.038 18.3922 14.3345 18.5068 14.6112C18.6214 14.8878 18.7894 15.1392 19.0011 15.3509C19.2128 15.5627 19.4642 15.7306 19.7409 15.8452C20.0175 15.9598 20.314 16.0188 20.6135 16.0188H48.1364Z" fill="white"/>
</svg>