<?xml version="1.0" encoding="UTF-8"?>
<svg xmlns="http://www.w3.org/2000/svg" xmlns:xlink="http://www.w3.org/1999/xlink" width="205px" height="40px" viewBox="0 0 206 40" version="1.1">
<g id="surface1">
<path style=" stroke:none;fill-rule:nonzero;fill:rgb(53.72549%,27.058824%,92.54902%);fill-opacity:0.501961;" d="M 58.238281 29.324219 L 54.371094 29.324219 L 54.371094 19.957031 L 46.335938 19.957031 L 46.335938 29.324219 L 42.46875 29.324219 L 42.46875 9.863281 L 46.335938 9.863281 L 46.335938 17.34375 L 54.371094 17.34375 L 54.371094 9.863281 L 58.238281 9.863281 Z M 58.238281 29.324219 "/>
<path style=" stroke:none;fill-rule:nonzero;fill:rgb(53.72549%,27.058824%,92.54902%);fill-opacity:0.501961;" d="M 75.527344 12.476562 L 69.078125 12.476562 L 69.078125 17.816406 L 75.390625 17.816406 L 75.390625 20.429688 L 69.078125 20.429688 L 69.078125 26.714844 L 76.707031 26.714844 L 76.707031 29.324219 L 65.210938 29.324219 L 65.210938 9.863281 L 75.527344 9.863281 Z M 75.527344 12.476562 "/>
<path style=" stroke:none;fill-rule:nonzero;fill:rgb(53.72549%,27.058824%,92.54902%);fill-opacity:0.501961;" d="M 86.367188 18.925781 L 87.929688 18.925781 C 90.589844 18.925781 91.441406 16.84375 91.441406 15.421875 C 91.441406 13.226562 89.90625 12.476562 88.371094 12.476562 L 86.367188 12.476562 Z M 82.496094 9.863281 L 89.164062 9.863281 C 92.839844 9.863281 95.308594 11.644531 95.308594 14.953125 C 95.308594 17.84375 93.882812 19.511719 92.070312 20.597656 L 96.847656 29.324219 L 92.398438 29.324219 L 88.671875 21.542969 L 86.367188 21.542969 L 86.367188 29.324219 L 82.496094 29.324219 Z M 82.496094 9.863281 "/>
<path style=" stroke:none;fill-rule:nonzero;fill:rgb(53.72549%,27.058824%,92.54902%);fill-opacity:0.501961;" d="M 105.546875 26.9375 L 107.519531 26.9375 C 109.664062 26.9375 111.277344 25.792969 111.277344 23.625 C 111.277344 21.347656 109.605469 20.375 107.492188 20.375 L 105.546875 20.375 Z M 105.546875 17.980469 L 106.753906 17.980469 C 108.976562 17.980469 110.484375 16.535156 110.484375 14.726562 C 110.484375 13.007812 109.222656 12.253906 107.546875 12.253906 L 105.546875 12.253906 Z M 101.675781 29.324219 L 101.675781 9.863281 L 108.617188 9.863281 C 111.855469 9.863281 114.132812 11.363281 114.132812 14.007812 C 114.132812 17.121094 111.636719 18.398438 110.292969 18.761719 L 110.292969 18.816406 C 112.679688 18.929688 115.339844 20.597656 115.339844 23.570312 C 115.339844 26.9375 112.566406 29.324219 108.042969 29.324219 Z M 101.675781 29.324219 "/>
<path style=" stroke:none;fill-rule:nonzero;fill:rgb(53.72549%,27.058824%,92.54902%);fill-opacity:0.501961;" d="M 130.003906 21.625 C 129.179688 19.066406 128.355469 16.703125 127.453125 13.699219 L 127.398438 13.699219 C 126.601562 16.703125 125.695312 19.066406 124.792969 21.625 Z M 129.480469 9.863281 L 136.695312 29.324219 L 132.363281 29.324219 L 130.582031 24.015625 L 123.777344 24.015625 L 121.800781 29.324219 L 118.457031 29.324219 L 126.273438 9.863281 Z M 129.480469 9.863281 "/>
<path style=" stroke:none;fill-rule:nonzero;fill:rgb(53.72549%,27.058824%,92.54902%);fill-opacity:0.501961;" d="M 141.417969 9.863281 L 145.285156 9.863281 L 145.285156 26.714844 L 152.914062 26.714844 L 152.914062 29.324219 L 141.417969 29.324219 Z M 141.417969 9.863281 "/>
<path style=" stroke:none;fill-rule:nonzero;fill:rgb(53.72549%,27.058824%,92.54902%);fill-opacity:0.501961;" d="M 158.074219 9.863281 L 161.941406 9.863281 L 161.941406 29.324219 L 158.074219 29.324219 Z M 158.074219 9.863281 "/>
<path style=" stroke:none;fill-rule:nonzero;fill:rgb(53.72549%,27.058824%,92.54902%);fill-opacity:0.501961;" d="M 179.203125 12.476562 L 172.78125 12.476562 L 172.78125 18.871094 L 179.09375 18.871094 L 179.09375 21.484375 L 172.78125 21.484375 L 172.78125 29.324219 L 168.914062 29.324219 L 168.914062 9.863281 L 179.203125 9.863281 Z M 179.203125 12.476562 "/>
<path style=" stroke:none;fill-rule:nonzero;fill:rgb(53.72549%,27.058824%,92.54902%);fill-opacity:0.501961;" d="M 195.019531 12.476562 L 188.570312 12.476562 L 188.570312 17.816406 L 194.878906 17.816406 L 194.878906 20.429688 L 188.570312 20.429688 L 188.570312 26.714844 L 196.195312 26.714844 L 196.195312 29.324219 L 184.703125 29.324219 L 184.703125 9.863281 L 195.019531 9.863281 Z M 195.019531 12.476562 "/>
<path style=" stroke:none;fill-rule:nonzero;fill:rgb(53.72549%,27.058824%,92.54902%);fill-opacity:0.501961;" d="M 4.84375 19.558594 C 10.164062 21.253906 15.183594 26.515625 16.703125 33.242188 C 9.222656 32.257812 4.859375 26.027344 4.84375 19.558594 Z M 4.84375 19.558594 "/>
<path style=" stroke:none;fill-rule:nonzero;fill:rgb(53.72549%,27.058824%,92.54902%);fill-opacity:0.501961;" d="M 31.640625 19.558594 C 26.320312 21.253906 21.238281 26.515625 19.785156 33.242188 C 27.261719 32.257812 31.625 26.027344 31.640625 19.558594 Z M 31.640625 19.558594 "/>
<path style=" stroke:none;fill-rule:nonzero;fill:rgb(53.72549%,27.058824%,92.54902%);fill-opacity:0.501961;" d="M 18.257812 33.242188 C 12.585938 24.367188 13.8125 12.199219 18.265625 5.644531 C 22.511719 12.199219 23.839844 24.367188 18.257812 33.242188 Z M 18.257812 33.242188 "/>
<path style=" stroke:none;fill-rule:nonzero;fill:rgb(53.72549%,27.058824%,92.54902%);fill-opacity:0.501961;" d="M 18.28125 3.851562 C 9.667969 3.851562 2.6875 10.9375 2.6875 19.664062 C 2.6875 28.386719 9.667969 35.460938 18.28125 35.460938 C 26.878906 35.460938 33.863281 28.386719 33.863281 19.664062 C 33.863281 10.9375 26.878906 3.851562 18.28125 3.851562 Z M 18.28125 34.492188 C 10.1875 34.492188 3.644531 27.847656 3.644531 19.664062 C 3.644531 11.460938 10.1875 4.820312 18.28125 4.820312 C 26.359375 4.820312 32.90625 11.460938 32.90625 19.664062 C 32.90625 27.847656 26.359375 34.492188 18.28125 34.492188 Z M 18.28125 34.492188 "/>
<path style=" stroke:none;fill-rule:nonzero;fill:rgb(53.72549%,27.058824%,92.54902%);fill-opacity:0.501961;" d="M 199.566406 27.238281 C 199.566406 26.269531 200.316406 25.523438 201.253906 25.523438 C 202.175781 25.523438 202.914062 26.269531 202.914062 27.238281 C 202.914062 28.253906 202.175781 28.980469 201.253906 28.980469 C 200.316406 28.980469 199.566406 28.253906 199.566406 27.238281 Z M 201.253906 29.3125 C 202.359375 29.3125 203.3125 28.457031 203.3125 27.238281 C 203.3125 26.046875 202.359375 25.183594 201.253906 25.183594 C 200.113281 25.183594 199.171875 26.046875 199.171875 27.238281 C 199.171875 28.457031 200.113281 29.3125 201.253906 29.3125 Z M 200.8125 27.421875 L 201.230469 27.421875 L 201.859375 28.457031 L 202.265625 28.457031 L 201.582031 27.386719 C 201.925781 27.347656 202.1875 27.164062 202.1875 26.742188 C 202.1875 26.269531 201.925781 26.046875 201.367188 26.046875 L 200.464844 26.046875 L 200.464844 28.457031 L 200.8125 28.457031 Z M 200.8125 27.105469 L 200.8125 26.363281 L 201.300781 26.363281 C 201.566406 26.363281 201.816406 26.421875 201.816406 26.714844 C 201.816406 27.089844 201.558594 27.105469 201.234375 27.105469 Z M 200.8125 27.105469 "/>
</g>
</svg>
